HIERARCHY
ROOT Hips
{
	OFFSET 0.00 0.00 0.00
	CHANNELS 6 Xposition Yposition Zposition Xrotation Yrotation Zrotation
	JOINT Spine
	{
		OFFSET 0.00000 7.50895 0.00000
		CHANNELS 3 Xrotation Yrotation Zrotation
		JOINT Head
		{
			OFFSET 0.00000 13.86115 0.00000
			CHANNELS 3 Xrotation Yrotation Zrotation
			End Site
			{
				OFFSET 0.00000 4.52755 0.00000
			}
		}
		JOINT LeftShoulder
		{
			OFFSET 0.00000 8.20478 0.00000
			CHANNELS 3 Xrotation Yrotation Zrotation
			JOINT LeftArm
			{
				OFFSET 6.63596 0.00000 0.00000
				CHANNELS 3 Xrotation Yrotation Zrotation
				JOINT LeftForeArm
				{
					OFFSET 10.27422 0.00000 0.00000
					CHANNELS 3 Yrotation Zrotation Xrotation
					JOINT LeftHand
					{
						OFFSET 8.52215 0.00000 0.00000
						CHANNELS 3 Xrotation Yrotation Zrotation
						JOINT LeftHandThumb1
						{
							OFFSET 0.00000 0.00000 0.00000
							CHANNELS 3 Xrotation Zrotation Yrotation
							End Site
							{
								OFFSET 0.00000 0.00000 3.93700
							}
						}
						End Site
						{
							OFFSET 3.93700 0.00000 0.00000
						}
					}
				}
			}
		}
		JOINT RightShoulder
		{
			OFFSET 0.00000 8.20478 0.00000
			CHANNELS 3 Xrotation Yrotation Zrotation
			JOINT RightArm
			{
				OFFSET -6.63596 0.00000 0.00000
				CHANNELS 3 Xrotation Yrotation Zrotation
				JOINT RightForeArm
				{
					OFFSET -10.27422 0.00000 0.00000
					CHANNELS 3 Yrotation Zrotation Xrotation
					JOINT RightHand
					{
						OFFSET -8.52215 0.00000 0.00000
						CHANNELS 3 Xrotation Yrotation Zrotation
						JOINT RightHandThumb1
						{
							OFFSET 0.00000 0.00000 0.00000
							CHANNELS 3 Xrotation Zrotation Yrotation
							End Site
							{
								OFFSET 0.00000 0.00000 3.93700
							}
						}
						End Site
						{
							OFFSET -3.93700 0.00000 0.00000
						}
					}
				}
			}
		}
	}
	JOINT LeftUpLeg
	{
		OFFSET 3.00056 0.00000 0.00000
		CHANNELS 3 Xrotation Yrotation Zrotation
		JOINT LeftLeg
		{
			OFFSET 0.00000 -16.49085 0.00000
			CHANNELS 3 Xrotation Yrotation Zrotation
			JOINT LeftFoot
			{
				OFFSET 0.00000 -14.55658 0.00000
				CHANNELS 3 Xrotation Yrotation Zrotation
				JOINT LeftToeBase
				{
					OFFSET 0.00000 -1.25038 4.66650
					CHANNELS 3 Xrotation Yrotation Zrotation
					End Site
					{
						OFFSET 0.00000 0.00000 2.95275
					}
				}
			}
		}
	}
	JOINT RightUpLeg
	{
		OFFSET -3.00056 0.00000 0.00000
		CHANNELS 3 Xrotation Yrotation Zrotation
		JOINT RightLeg
		{
			OFFSET 0.00000 -16.49085 0.00000
			CHANNELS 3 Xrotation Yrotation Zrotation
			JOINT RightFoot
			{
				OFFSET 0.00000 -14.55658 0.00000
				CHANNELS 3 Xrotation Yrotation Zrotation
				JOINT RightToeBase
				{
					OFFSET 0.00000 -1.25038 4.66650
					CHANNELS 3 Xrotation Yrotation Zrotation
					End Site
					{
						OFFSET 0.00000 0.00000 2.95275
					}
				}
			}
		}
	}
}
MOTION
Frames: 23
Frame Time: 0.008333
 0.5154 32.8861 1.3221 8.4353 4.6924 -1.1239 -9.4477 3.5975 0.5195 -3.7634 -2.7529 10.0509 6.6118 19.0519 26.0628 -31.0976 -2.2798 -26.9502 -15.2241 -0.0000 13.7506 5.2815 24.4288 -12.6000 33.1476 -0.0000 26.2537 -24.5423 -7.9581 -34.3401 -2.7081 -13.0491 29.2826 15.2267 -0.0000 30.4188 2.3233 -7.4185 17.4445 32.8623 0.0000 -24.3270 -4.8280 10.3859 5.8365 -1.6689 -0.0000 -0.0000 -5.7022 3.8426 -16.7703 10.4164 0.0000 -0.0000 -3.4084 -12.5807 -4.1897 0.6319 0.0000 -0.0000 -6.2351 -5.4090 1.3278 -0.2906 -0.0000 -0.0000
 0.5175 32.8863 1.3223 8.4179 4.6941 -1.1162 -9.4432 3.6187 0.5276 -3.6007 -2.7492 9.9454 6.6033 19.0516 26.0765 -31.1473 -2.2650 -26.9443 -15.3142 -0.0000 13.7491 5.2757 24.4911 -12.5573 33.1476 -0.0000 26.2537 -24.5628 -7.9464 -34.3908 -2.6950 -13.0025 29.2905 15.2075 -0.0000 30.3419 2.3006 -7.4145 17.2922 32.8623 0.0000 -24.3270 -4.8073 10.3817 5.8262 -1.6702 -0.0000 0.0000 -5.6991 3.8279 -16.7136 10.3821 -0.0000 -0.0000 -3.3945 -12.5790 -4.2006 0.6371 0.0000 -0.0000 -6.2394 -5.4064 1.3824 -0.2866 -0.0000 -0.0000
 0.5185 32.8866 1.3218 8.4038 4.6931 -1.1126 -9.4403 3.6231 0.5364 -3.4402 -2.7329 9.8565 6.6013 19.0591 26.0730 -31.1700 -2.2821 -26.9140 -15.3500 -0.0000 13.7193 5.1931 24.4698 -12.3756 33.1476 -0.0000 26.2537 -24.5572 -7.9437 -34.4013 -2.7340 -12.9474 29.2656 15.1831 -0.0000 30.2154 2.2868 -7.3869 17.2544 32.8623 0.0000 -24.3270 -4.7961 10.3831 5.8219 -1.6638 0.0000 -0.0000 -5.7016 3.8358 -16.7343 10.3682 0.0000 -0.0000 -3.3865 -12.5730 -4.2056 0.6475 -0.0000 -0.0000 -6.2464 -5.4131 1.3431 -0.2922 -0.0000 0.0000
 0.5210 32.8866 1.3226 8.3846 4.6908 -1.1083 -9.4385 3.6221 0.5474 -3.2615 -2.7346 9.7704 6.4326 18.9769 26.1727 -31.0585 -2.1809 -26.9398 -15.4776 -0.0000 13.6866 5.1995 24.5284 -12.3636 33.1476 -0.0000 26.2537 -24.5562 -7.8920 -34.4340 -2.7702 -12.9823 29.2516 15.2306 -0.0000 30.3036 2.2851 -7.3658 17.2891 32.8623 0.0000 -24.3270 -4.7741 10.3801 5.8143 -1.6621 -0.0000 -0.0000 -5.7029 3.8519 -16.7434 10.4111 0.0000 -0.0000 -3.3716 -12.5703 -4.2121 0.6537 0.0000 -0.0000 -6.2431 -5.4196 1.3390 -0.2710 0.0000 -0.0000
 0.5228 32.8867 1.3215 8.3759 4.6992 -1.1049 -9.4394 3.6309 0.5507 -3.1015 -2.7445 9.6969 6.4246 18.9560 26.1847 -31.0734 -2.1785 -26.9199 -15.4972 -0.0000 13.6892 5.1537 24.5247 -12.2591 33.1476 -0.0000 26.2537 -24.5689 -7.8709 -34.4760 -2.8156 -13.0159 29.2549 15.2956 -0.0000 30.3056 2.3102 -7.4615 17.2580 32.8623 0.0000 -24.3270 -4.7749 10.3870 5.8069 -1.6380 -0.0000 -0.0000 -5.6903 3.7381 -16.5733 10.1478 0.0000 -0.0000 -3.3711 -12.5842 -4.2210 0.6651 0.0000 0.0000 -6.2436 -5.4066 1.3498 -0.3030 0.0000 0.0000
 0.5239 32.8870 1.3225 8.3507 4.7123 -1.1014 -9.4207 3.6328 0.5472 -2.9481 -2.7419 9.6569 6.3857 18.9272 26.1943 -31.0983 -2.1769 -26.8829 -15.4947 -0.0000 13.7291 5.2135 24.6228 -12.3527 33.1476 -0.0000 26.2537 -24.5702 -7.8838 -34.4651 -2.8503 -12.9484 29.2053 15.2437 -0.0000 30.1525 2.2759 -7.3629 17.2295 32.8623 0.0000 -24.3270 -4.7483 10.3888 5.8047 -1.6506 -0.0000 0.0000 -5.7033 3.8148 -16.7488 10.4006 0.0000 0.0000 -3.3392 -12.5817 -4.2237 0.6588 0.0000 0.0000 -6.2373 -5.4270 1.3407 -0.3150 -0.0000 -0.0000
 0.5252 32.8867 1.3218 8.3493 4.7155 -1.0954 -9.4273 3.6430 0.5464 -2.8056 -2.7273 9.6018 6.3180 18.8818 26.2072 -31.0768 -2.1856 -26.8441 -15.4937 -0.0000 13.6428 5.2185 24.6521 -12.3510 33.1476 -0.0000 26.2537 -24.5868 -7.8615 -34.5358 -2.8153 -12.9368 29.2625 15.2605 -0.0000 30.1540 2.2653 -7.3396 17.2051 32.8623 0.0000 -24.3270 -4.7470 10.3855 5.7951 -1.6505 0.0000 0.0000 -5.7056 3.8214 -16.7452 10.4160 -0.0000 0.0000 -3.3487 -12.5775 -4.2329 0.6775 0.0000 0.0000 -6.2582 -5.4358 1.3310 -0.2830 0.0000 0.0000
 0.5266 32.8866 1.3217 8.3373 4.7204 -1.0907 -9.4154 3.6445 0.5450 -2.6729 -2.7279 9.5610 6.4652 18.9950 26.1218 -31.3479 -2.2321 -26.8190 -15.5001 -0.0000 13.7051 5.1869 24.6307 -12.2878 33.1476 -0.0000 26.2537 -24.6207 -7.8461 -34.5456 -2.8266 -12.9068 29.2400 15.2710 -0.0000 30.0868 2.2852 -7.4075 17.1987 32.8623 0.0000 -24.3270 -4.7384 10.4030 5.7912 -1.6452 0.0000 0.0000 -5.7113 3.7836 -16.7404 10.3892 0.0000 -0.0000 -3.3349 -12.5645 -4.2395 0.6744 0.0000 -0.0000 -6.2534 -5.4498 1.3419 -0.3005 0.0000 -0.0000
 0.5290 32.8870 1.3212 8.3259 4.7333 -1.0874 -9.4185 3.6369 0.5449 -2.5040 -2.7180 9.5428 6.4661 18.9807 26.1384 -31.3715 -2.1961 -26.8186 -15.5410 -0.0000 13.7363 5.1792 24.6249 -12.2726 33.1476 -0.0000 26.2537 -24.6105 -7.8553 -34.5745 -2.8533 -12.8548 29.2562 15.2709 -0.0000 30.1343 2.2888 -7.4222 17.1918 32.8623 0.0000 -24.3270 -4.7273 10.4015 5.7811 -1.6490 0.0000 -0.0000 -5.7058 3.7695 -16.7073 10.3987 -0.0000 0.0000 -3.3283 -12.5647 -4.2469 0.6861 -0.0000 0.0000 -6.2641 -5.4614 1.3497 -0.2577 -0.0000 -0.0000
 0.5299 32.8870 1.3214 8.3127 4.7465 -1.0888 -9.4091 3.6239 0.5422 -2.3803 -2.7195 9.5378 6.4801 19.0020 26.1411 -31.4058 -2.2176 -26.8199 -15.5349 -0.0000 13.7079 5.1396 24.6312 -12.1782 33.1476 -0.0000 26.2537 -24.6174 -7.8503 -34.5968 -2.9006 -12.8423 29.2629 15.2843 -0.0000 30.2370 2.2937 -7.4333 17.2025 32.8623 0.0000 -24.3270 -4.7185 10.4040 5.7814 -1.6443 0.0000 0.0000 -5.7115 3.7728 -16.7389 10.4138 0.0000 0.0000 -3.3135 -12.5694 -4.2459 0.6883 0.0000 0.0000 -6.2665 -5.4726 1.3447 -0.2698 -0.0000 -0.0000
 0.5313 32.8871 1.3206 8.3064 4.7632 -1.0890 -9.4036 3.6093 0.5324 -2.2715 -2.7168 9.5552 6.4752 19.0121 26.1571 -31.4378 -2.2192 -26.8282 -15.5377 -0.0000 13.7063 5.1287 24.6461 -12.1465 33.1476 -0.0000 26.2537 -24.6246 -7.8139 -34.6025 -2.8888 -12.8732 29.2650 15.3428 -0.0000 30.2579 2.3226 -7.5510 17.1530 32.8623 0.0000 -24.3270 -4.7154 10.3955 5.7786 -1.6441 -0.0000 -0.0000 -5.7153 3.7563 -16.7282 10.4406 -0.0000 -0.0000 -3.3060 -12.5676 -4.2494 0.6893 -0.0000 -0.0000 -6.2650 -5.4891 1.3297 -0.2583 0.0000 0.0000
 0.5322 32.8872 1.3201 8.2977 4.7736 -1.0944 -9.3960 3.6088 0.5369 -2.1578 -2.7177 9.5475 6.4749 18.9969 26.1586 -31.4653 -2.1822 -26.8253 -15.5708 -0.0000 13.7338 5.1179 24.6092 -12.1379 33.1476 -0.0000 26.2537 -24.6220 -7.8279 -34.6050 -2.9151 -12.8295 29.2600 15.2987 -0.0000 30.2346 2.2863 -7.4629 17.0866 32.8623 0.0000 -24.3270 -4.7130 10.3971 5.7836 -1.6387 -0.0000 -0.0000 -5.7110 3.7434 -16.7283 10.3731 0.0000 0.0000 -3.2985 -12.5718 -4.2468 0.6950 -0.0000 0.0000 -6.2612 -5.4899 1.3403 -0.2846 0.0000 0.0000
 0.5340 32.8868 1.3196 8.2922 4.7916 -1.0981 -9.3896 3.5939 0.5373 -2.0557 -2.7016 9.5675 6.4630 18.9996 26.1609 -31.4238 -2.2256 -26.8241 -15.5521 -0.0000 13.6473 5.0964 24.6490 -12.0705 33.1476 -0.0000 26.2537 -24.6157 -7.8210 -34.6357 -2.9512 -12.8606 29.2980 15.3529 -0.0000 30.2812 2.3113 -7.5793 17.0141 32.8623 0.0000 -24.3270 -4.7108 10.3861 5.7832 -1.6366 -0.0000 0.0000 -5.7191 3.7346 -16.7200 10.4101 -0.0000 -0.0000 -3.2941 -12.5784 -4.2463 0.7003 -0.0000 -0.0000 -6.2720 -5.5047 1.3515 -0.2358 0.0000 0.0000
 0.5353 32.8868 1.3183 8.2889 4.8088 -1.1016 -9.3828 3.5828 0.5355 -1.9580 -2.6979 9.5756 6.4534 18.9748 26.1573 -31.4014 -2.2162 -26.8084 -15.5506 -0.0000 13.6298 5.0991 24.6357 -12.0827 33.1476 -0.0000 26.2537 -24.6100 -7.8300 -34.6243 -2.9616 -12.8199 29.2918 15.3071 -0.0000 30.1802 2.2765 -7.4691 17.0042 32.8623 0.0000 -24.3270 -4.7122 10.3664 5.7826 -1.6335 0.0000 -0.0000 -5.7138 3.7378 -16.7390 10.4346 0.0000 -0.0000 -3.2919 -12.5737 -4.2469 0.7056 0.0000 -0.0000 -6.2590 -5.5202 1.3215 -0.3078 0.0000 0.0000
 0.5367 32.8865 1.3178 8.2812 4.8286 -1.1053 -9.3720 3.5789 0.5373 -1.8612 -2.6896 9.5784 6.4729 18.9655 26.1375 -31.4389 -2.2108 -26.8001 -15.5403 -0.0000 13.5976 5.1152 24.5819 -12.1440 33.1476 -0.0000 26.2537 -24.6224 -7.8291 -34.6345 -2.9736 -12.8262 29.2950 15.3256 -0.0000 30.2356 2.2866 -7.4603 17.0945 32.8623 0.0000 -24.3270 -4.7095 10.3552 5.7818 -1.6291 -0.0000 -0.0000 -5.7326 3.7326 -16.6938 10.4086 0.0000 -0.0000 -3.2825 -12.5904 -4.2473 0.7081 -0.0000 -0.0000 -6.2625 -5.5133 1.3318 -0.2684 -0.0000 -0.0000
 0.5379 32.8865 1.3172 8.2737 4.8455 -1.1068 -9.3580 3.5659 0.5276 -1.7717 -2.6640 9.6128 6.4647 18.9501 26.1256 -31.3995 -2.2314 -26.7803 -15.5272 -0.0000 13.5673 5.1339 24.6053 -12.1767 33.1476 -0.0000 26.2537 -24.6188 -7.8378 -34.6190 -2.9812 -12.8122 29.2961 15.3308 -0.0000 30.2147 2.2899 -7.4575 17.1235 32.8623 0.0000 -24.3270 -4.7030 10.3392 5.7812 -1.6322 0.0000 -0.0000 -5.7229 3.7233 -16.7023 10.4239 0.0000 -0.0000 -3.2734 -12.5906 -4.2464 0.7095 0.0000 0.0000 -6.2666 -5.5449 1.3088 -0.2688 -0.0000 0.0000
 0.5397 32.8868 1.3158 8.2693 4.8608 -1.1071 -9.3468 3.5497 0.5140 -1.6841 -2.6277 9.6643 6.4900 18.9673 26.1041 -31.3961 -2.2620 -26.7661 -15.5190 -0.0000 13.5168 5.1604 24.6190 -12.2319 33.1476 -0.0000 26.2537 -24.6159 -7.8553 -34.5800 -2.9791 -12.7555 29.2882 15.2951 -0.0000 30.0855 2.2822 -7.4699 17.0427 32.8623 0.0000 -24.3270 -4.6931 10.2970 5.7756 -1.6409 0.0000 -0.0000 -5.7255 3.7574 -16.6823 10.4250 -0.0000 -0.0000 -3.2733 -12.5955 -4.2505 0.7185 0.0000 -0.0000 -6.2630 -5.5596 1.3321 -0.2914 0.0000 -0.0000
 0.5404 32.8866 1.3146 8.2711 4.8826 -1.1143 -9.3389 3.5346 0.5085 -1.6136 -2.5993 9.7031 6.4888 18.9713 26.0864 -31.3381 -2.3138 -26.7573 -15.5068 -0.0000 13.4386 5.1427 24.5771 -12.2099 33.1476 -0.0000 26.2537 -24.6240 -7.8561 -34.5768 -3.0162 -12.7832 29.3010 15.3028 -0.0000 30.2033 2.2721 -7.4219 17.0744 32.8623 0.0000 -24.3270 -4.7010 10.2819 5.7812 -1.6401 0.0000 0.0000 -5.6958 3.7573 -16.7867 10.3352 -0.0000 0.0000 -3.2733 -12.6014 -4.2468 0.7204 0.0000 0.0000 -6.2716 -5.5608 1.3492 -0.2622 -0.0000 -0.0000
 0.5424 32.8863 1.3137 8.2713 4.8919 -1.1172 -9.3306 3.5318 0.5095 -1.5500 -2.5629 9.7211 6.5054 18.9724 26.0579 -31.3510 -2.3379 -26.7638 -15.4571 -0.0000 13.4041 5.1524 24.6507 -12.1990 33.1476 -0.0000 26.2537 -24.6277 -7.8609 -34.5819 -3.0089 -12.7734 29.3305 15.2901 -0.0000 30.1991 2.2737 -7.4311 17.0660 32.8623 0.0000 -24.3270 -4.7037 10.2765 5.7779 -1.6386 -0.0000 0.0000 -5.7273 3.7521 -16.7109 10.3969 -0.0000 0.0000 -3.2755 -12.6056 -4.2493 0.7236 0.0000 0.0000 -6.2638 -5.5716 1.3636 -0.2953 0.0000 0.0000
 0.5437 32.8861 1.3131 8.2706 4.9007 -1.1180 -9.3214 3.5173 0.4911 -1.4955 -2.5046 9.7942 6.5372 18.9900 26.0294 -31.3535 -2.3659 -26.7440 -15.4252 -0.0000 13.3922 5.1472 24.6275 -12.1974 33.1476 -0.0000 26.2537 -24.6210 -7.8621 -34.5410 -3.0320 -12.7824 29.3288 15.2831 -0.0000 30.2424 2.2682 -7.3912 17.1132 32.8623 0.0000 -24.3270 -4.6999 10.2780 5.7755 -1.6495 0.0000 0.0000 -5.7081 3.7356 -16.7290 10.3461 -0.0000 0.0000 -3.2767 -12.6027 -4.2508 0.7301 -0.0000 -0.0000 -6.2762 -5.5865 1.3392 -0.2641 -0.0000 -0.0000
 0.5452 32.8860 1.3125 8.2747 4.9096 -1.1195 -9.3184 3.5139 0.4870 -1.4443 -2.4517 9.8207 6.5432 18.9741 26.0018 -31.3206 -2.3628 -26.7335 -15.4222 -0.0000 13.4172 5.1736 24.6133 -12.2650 33.1476 -0.0000 26.2537 -24.6356 -7.8625 -34.5328 -2.9968 -12.7579 29.3583 15.2460 -0.0000 30.1585 2.2615 -7.3755 17.0993 32.8623 0.0000 -24.3270 -4.6992 10.2536 5.7724 -1.6572 -0.0000 0.0000 -5.7024 3.7538 -16.7264 10.3366 -0.0000 0.0000 -3.2813 -12.6027 -4.2535 0.7311 0.0000 -0.0000 -6.2644 -5.5887 1.3479 -0.2867 -0.0000 -0.0000
 0.5460 32.8857 1.3115 8.2748 4.9125 -1.1229 -9.3040 3.5170 0.4797 -1.4101 -2.4151 9.8660 6.5356 18.9617 25.9849 -31.3385 -2.3478 -26.7463 -15.4008 -0.0000 13.4742 5.1393 24.5132 -12.2310 33.1476 -0.0000 26.2537 -24.6381 -7.8879 -34.5227 -2.9850 -12.7284 29.4040 15.2279 -0.0000 30.0784 2.2859 -7.5064 16.9910 32.8623 0.0000 -24.3270 -4.7067 10.2628 5.7740 -1.6511 -0.0000 -0.0000 -5.7257 3.7461 -16.7097 10.4350 -0.0000 -0.0000 -3.2823 -12.5952 -4.2503 0.7334 0.0000 0.0000 -6.2773 -5.6061 1.3431 -0.2542 -0.0000 -0.0000
 0.5472 32.8857 1.3112 8.2742 4.9194 -1.1262 -9.2958 3.5085 0.4728 -1.3601 -2.3467 9.9064 6.5841 18.9580 25.9599 -31.3332 -2.3391 -26.7451 -15.3838 -0.0000 13.3974 5.1687 24.5835 -12.2672 33.1476 -0.0000 26.2537 -24.6045 -7.9204 -34.5108 -3.0397 -12.7297 29.4435 15.2117 -0.0000 30.1331 2.2933 -7.4904 17.0772 32.8623 0.0000 -24.3270 -4.7004 10.2503 5.7752 -1.6648 0.0000 0.0000 -5.7230 3.7322 -16.6747 10.3974 0.0000 -0.0000 -3.2815 -12.6098 -4.2504 0.7319 -0.0000 -0.0000 -6.2690 -5.5865 1.3388 -0.2728 0.0000 0.0000
